<?xml version="1.0" encoding="UTF-8" standalone="no"?>
<!-- Created with Inkscape (http://www.inkscape.org/) -->

<svg
   width="250"
   height="250"
   viewBox="0 0 234.375 234.375"
   id="svg3845"
   version="1.1"
   inkscape:version="1.3.2 (091e20e, 2023-11-25)"
   sodipodi:docname="u.svg"
   xmlns:inkscape="http://www.inkscape.org/namespaces/inkscape"
   xmlns:sodipodi="http://sodipodi.sourceforge.net/DTD/sodipodi-0.dtd"
   xmlns="http://www.w3.org/2000/svg"
   xmlns:svg="http://www.w3.org/2000/svg"
   xmlns:rdf="http://www.w3.org/1999/02/22-rdf-syntax-ns#"
   xmlns:cc="http://creativecommons.org/ns#"
   xmlns:dc="http://purl.org/dc/elements/1.1/">
  <defs
     id="defs3847">
    <pattern
       y="0"
       x="0"
       height="6"
       width="6"
       patternUnits="userSpaceOnUse"
       id="EMFhbasepattern" />
    <pattern
       y="0"
       x="0"
       height="6"
       width="6"
       patternUnits="userSpaceOnUse"
       id="EMFhbasepattern-0" />
    <pattern
       y="0"
       x="0"
       height="6"
       width="6"
       patternUnits="userSpaceOnUse"
       id="EMFhbasepattern-2" />
    <pattern
       y="0"
       x="0"
       height="6"
       width="6"
       patternUnits="userSpaceOnUse"
       id="EMFhbasepattern-7" />
    <pattern
       y="0"
       x="0"
       height="6"
       width="6"
       patternUnits="userSpaceOnUse"
       id="EMFhbasepattern-4" />
  </defs>
  <sodipodi:namedview
     id="base"
     pagecolor="#ffffff"
     bordercolor="#666666"
     borderopacity="1.0"
     inkscape:pageopacity="0.0"
     inkscape:pageshadow="2"
     inkscape:zoom="2.8"
     inkscape:cx="146.60714"
     inkscape:cy="131.96429"
     inkscape:document-units="px"
     inkscape:current-layer="layer1"
     showgrid="false"
     inkscape:window-width="1936"
     inkscape:window-height="1212"
     inkscape:window-x="170"
     inkscape:window-y="25"
     inkscape:window-maximized="0"
     units="px"
     fit-margin-top="0"
     fit-margin-left="0"
     fit-margin-right="0"
     fit-margin-bottom="0"
     inkscape:showpageshadow="2"
     inkscape:pagecheckerboard="0"
     inkscape:deskcolor="#d1d1d1"
     showguides="true">
    <sodipodi:guide
       position="146.98661,225"
       orientation="0,1"
       id="guide1"
       inkscape:locked="false"
       inkscape:label=""
       inkscape:color="rgb(0,134,229)" />
    <sodipodi:guide
       position="177.79018,9.375"
       orientation="0,1"
       id="guide2"
       inkscape:locked="false"
       inkscape:label=""
       inkscape:color="rgb(0,134,229)" />
    <sodipodi:guide
       position="9.375,232.70089"
       orientation="-1,0"
       id="guide3"
       inkscape:locked="false"
       inkscape:label=""
       inkscape:color="rgb(0,134,229)" />
    <sodipodi:guide
       position="225,224.33036"
       orientation="-1,0"
       id="guide4"
       inkscape:locked="false"
       inkscape:label=""
       inkscape:color="rgb(0,134,229)" />
  </sodipodi:namedview>
  <metadata
     id="metadata3850">
    <rdf:RDF>
      <cc:Work
         rdf:about="">
        <dc:format>image/svg+xml</dc:format>
        <dc:type
           rdf:resource="http://purl.org/dc/dcmitype/StillImage" />
      </cc:Work>
    </rdf:RDF>
  </metadata>
  <g
     inkscape:label="Layer 1"
     inkscape:groupmode="layer"
     id="layer1"
     transform="translate(-671.66181,-519.84953)">
    <circle
       style="fill:#aadcee;fill-opacity:1;fill-rule:nonzero;stroke-width:0.928172;stroke:none"
       id="path1"
       cx="788.8493"
       cy="637.03705"
       r="117.1875"
       transform="translate(3.7500002e-6)" />
    <path
       inkscape:connector-curvature="0"
       id="path3391"
       d="m 836.66429,725.33396 c -12.65697,13.05847 -28.52816,19.48747 -47.21227,19.48747 -21.09467,0 -37.76979,-7.23256 -50.22564,-21.69748 -11.65239,-13.66146 -17.47858,-31.13986 -17.47858,-52.43575 0,-22.90281 10.04509,-49.0204 29.93443,-78.35212 16.27325,-23.9074 35.35894,-45.00217 57.25755,-63.08346 -3.2145,14.66595 -4.82171,25.11282 -4.82171,31.13995 0,14.26418 4.41983,28.12629 13.46025,41.58692 10.84883,16.07231 19.28681,27.92545 24.91217,35.76072 9.04041,13.46052 13.46033,26.71993 13.46033,39.3769 0,19.08569 -6.4289,35.15801 -19.28653,48.21685 z m -0.20122,-73.32958 c -3.41534,-7.63433 -7.43349,-12.85791 -12.05426,-15.26876 0.60271,1.40646 1.00449,3.2145 1.00449,5.82629 0,4.8217 -1.40627,11.65239 -4.01806,20.49196 l -4.62076,13.8624 c 0,8.03611 4.01805,12.05426 12.05426,12.05426 8.43798,0 12.65697,-5.62535 12.65697,-16.87597 0,-5.82628 -1.6073,-12.45613 -5.02264,-20.09018 z"
       style="fill:#0d0f0f;fill-opacity:1;fill-rule:nonzero;stroke:none;stroke-width:9.49154" />
  </g>
</svg>
