<?xml version="1.0" encoding="UTF-8" standalone="no"?>
<!-- Created with Inkscape (http://www.inkscape.org/) -->

<svg
   width="250"
   height="250"
   viewBox="0 0 250 250"
   id="svg3845"
   version="1.1"
   inkscape:version="1.3.2 (091e20e, 2023-11-25)"
   sodipodi:docname="b.svg"
   xmlns:inkscape="http://www.inkscape.org/namespaces/inkscape"
   xmlns:sodipodi="http://sodipodi.sourceforge.net/DTD/sodipodi-0.dtd"
   xmlns="http://www.w3.org/2000/svg"
   xmlns:svg="http://www.w3.org/2000/svg"
   xmlns:rdf="http://www.w3.org/1999/02/22-rdf-syntax-ns#"
   xmlns:cc="http://creativecommons.org/ns#"
   xmlns:dc="http://purl.org/dc/elements/1.1/">
  <defs
     id="defs3847">
    <pattern
       y="0"
       x="0"
       height="6"
       width="6"
       patternUnits="userSpaceOnUse"
       id="EMFhbasepattern" />
    <pattern
       y="0"
       x="0"
       height="6"
       width="6"
       patternUnits="userSpaceOnUse"
       id="EMFhbasepattern-0" />
    <pattern
       y="0"
       x="0"
       height="6"
       width="6"
       patternUnits="userSpaceOnUse"
       id="EMFhbasepattern-2" />
  </defs>
  <sodipodi:namedview
     id="base"
     pagecolor="#ffffff"
     bordercolor="#666666"
     borderopacity="1.0"
     inkscape:pageopacity="0.0"
     inkscape:pageshadow="2"
     inkscape:zoom="2.6968912"
     inkscape:cx="115.13256"
     inkscape:cy="143.31316"
     inkscape:document-units="px"
     inkscape:current-layer="layer1"
     showgrid="false"
     inkscape:window-width="2576"
     inkscape:window-height="1212"
     inkscape:window-x="1067"
     inkscape:window-y="25"
     inkscape:window-maximized="0"
     units="px"
     fit-margin-top="0"
     fit-margin-left="0"
     fit-margin-right="0"
     fit-margin-bottom="0"
     inkscape:showpageshadow="2"
     inkscape:pagecheckerboard="false"
     inkscape:deskcolor="#d1d1d1"
     showguides="true">
    <sodipodi:guide
       position="33.742555,240"
       orientation="0,1"
       id="guide1"
       inkscape:locked="false"
       inkscape:label=""
       inkscape:color="rgb(0,134,229)" />
    <sodipodi:guide
       position="0,250"
       orientation="0,250"
       id="guide2"
       inkscape:locked="false" />
    <sodipodi:guide
       position="250,250"
       orientation="250,0"
       id="guide3"
       inkscape:locked="false" />
    <sodipodi:guide
       position="250,0"
       orientation="0,-250"
       id="guide4"
       inkscape:locked="false" />
    <sodipodi:guide
       position="0,0"
       orientation="-250,0"
       id="guide5"
       inkscape:locked="false" />
    <sodipodi:guide
       position="154.62248,10"
       orientation="0,1"
       id="guide6"
       inkscape:locked="false"
       inkscape:label=""
       inkscape:color="rgb(0,134,229)" />
    <sodipodi:guide
       position="10,149.14313"
       orientation="-1,0"
       id="guide7"
       inkscape:locked="false"
       inkscape:label=""
       inkscape:color="rgb(0,134,229)" />
    <sodipodi:guide
       position="240,99.456292"
       orientation="-1,0"
       id="guide8"
       inkscape:locked="false"
       inkscape:label=""
       inkscape:color="rgb(0,134,229)" />
  </sodipodi:namedview>
  <metadata
     id="metadata3850">
    <rdf:RDF>
      <cc:Work
         rdf:about="">
        <dc:format>image/svg+xml</dc:format>
        <dc:type
           rdf:resource="http://purl.org/dc/dcmitype/StillImage" />
      </cc:Work>
    </rdf:RDF>
  </metadata>
  <g
     inkscape:label="Layer 1"
     inkscape:groupmode="layer"
     id="layer1"
     transform="translate(-657.72803,-418.59079)">
    <circle
       style="fill:#c5beb8;stroke-width:0.99005;fill-opacity:1;fill-rule:nonzero"
       id="path1"
       cx="782.72803"
       cy="543.59082"
       r="125" />
    <path
       inkscape:connector-curvature="0"
       style="fill:#0d0f0f;stroke-width:2.71937"
       d="m 893.39838,539.83393 c 0,15.0055 -5.46051,25.2385 -16.37063,30.69357 -3.1871,1.59355 -13.18895,3.75 -30.01372,6.48027 -10.91012,1.82197 -16.36518,6.02884 -16.36518,12.61517 v 27.62339 c 0,1.1476 0.33992,4.66376 1.01976,10.57567 l 1.02518,10.91556 c 0,3.41282 -0.79678,8.99026 -2.39033,16.71324 -4.31834,0.90826 -9.32201,1.92809 -15.0055,3.07839 -1.82198,-6.82842 -2.73025,-11.48669 -2.73025,-13.99395 0,-1.13127 0.28554,-2.84172 0.85116,-5.11783 0.56291,-2.26795 0.85932,-3.97301 0.85932,-5.12061 0,-1.57725 -1.41407,-6.01794 -4.2395,-13.28954 h -5.28918 c -0.70159,1.13669 -0.93547,2.61331 -0.70703,4.42985 0.90827,3.86695 1.24819,7.16011 1.02519,9.89034 -3.86694,2.73028 -9.21053,6.36607 -16.03073,10.91286 -1.59354,-0.45144 -2.15645,-0.67983 -1.71048,-0.67983 v -24.2133 c -0.44597,-1.13129 -1.58811,-1.57996 -3.41009,-1.36513 h -4.08993 l -4.08995,32.05325 c -3.19254,0.22842 -7.04861,0.22842 -11.5954,0 -1.59899,-7.50003 -4.43529,-18.63586 -8.52524,-33.41838 h -2.73025 c -2.50726,7.96505 -3.86694,12.28885 -4.09538,12.9687 0,0.90827 0.28283,2.6677 0.85389,5.28101 0.56291,2.61604 0.85117,4.37548 0.85117,5.28375 0,0.67984 -0.22843,2.38489 -0.67985,5.11514 l -1.02521,8.18531 c -0.45684,0.45141 -1.02519,0.67985 -1.70504,0.67985 -6.82019,0 -11.37242,-1.70505 -13.64037,-5.1097 -2.2734,-3.41554 -3.18711,-8.19076 -2.73025,-14.33382 l 2.73025,-40.91841 c 0,-0.68528 0.22299,-1.59355 0.67984,-2.73025 0.44598,-1.13669 0.67984,-1.93347 0.67984,-2.38488 0,-1.82198 -1.93347,-5.4605 -5.79498,-10.91557 -0.6744,-0.22299 -4.21231,-1.0252 -10.57017,-2.39033 -3.8724,-0.90827 -11.48936,-2.49638 -22.8482,-4.77522 -15.69348,-2.9478 -23.53346,-15.56841 -23.53346,-37.85367 0,-33.19539 13.64584,-60.81877 40.92931,-82.87289 1.12582,6.14035 3.0647,14.32022 5.78955,24.55322 2.0504,0.4623 6.4857,1.48206 13.30045,3.07017 1.37056,0.45685 8.30224,2.95868 20.80864,7.50547 -6.37421,-3.86695 -14.66558,-10.11334 -24.89858,-18.75824 -3.86694,-4.54679 -5.80042,-12.15831 -5.80042,-22.84273 0,-2.50182 4.32381,-5.46049 12.96597,-8.87603 7.72302,-3.18167 13.52888,-4.99276 17.39311,-5.45506 12.27525,-1.58268 21.71147,-2.39033 28.30867,-2.39033 28.41476,0 51.37171,7.28248 68.87628,21.83385 -5.67803,6.59719 -15.45689,13.63493 -29.323,21.13769 5.4605,0.22842 13.41739,-1.92261 23.87338,-6.48027 10.45329,-4.54136 14.88856,-6.82019 13.30045,-6.82019 1.81654,0 5.4605,3.64395 10.91557,10.91556 4.08993,5.45507 7.38309,10.35266 9.89035,14.66014 7.2716,12.96597 12.15832,26.94355 14.66558,41.94905 0,5.23751 0.11149,8.98753 0.33992,11.25548 v 2.73025 z m -130.61423,6.14035 c 0,-9.77343 -4.26398,-19.04104 -12.78921,-27.80014 -8.53068,-8.75368 -17.68137,-13.12371 -27.45479,-13.12371 -8.64217,0 -16.25369,3.66571 -22.84817,10.98355 -6.59723,7.32327 -9.89036,15.45149 -9.89036,24.37374 0,7.77468 3.75001,12.81641 11.25549,15.10067 4.77521,1.37601 11.47303,2.17823 20.11791,2.40122 h 18.75824 c 15.22305,0.22842 22.85089,-3.75002 22.85089,-11.93533 z m 37.16842,42.29441 v -10.57565 c -1.58812,-2.95324 -3.18173,-6.02341 -4.76981,-9.2105 -1.36513,-4.55223 -3.86695,-10.91556 -7.50547,-19.10357 l -3.75545,39.90406 c 0,3.18713 -0.67985,4.7752 -2.04497,4.7752 -0.90827,0 -1.58812,-0.22299 -2.04498,-0.67441 -1.59354,-24.10179 -2.39032,-34.56051 -2.39032,-31.38428 v -11.92988 c -0.45685,-0.69073 -1.01976,-1.03065 -1.69961,-1.03065 -7.7339,7.96776 -11.5954,20.80864 -11.5954,38.53895 0,9.77887 0.89739,15.80228 2.72481,18.07839 1.82198,-0.45141 3.86694,-1.24818 6.14034,-2.38487 0.90827,-0.45685 3.52159,-0.68526 7.85083,-0.68526 4.30749,0 9.545,1.3651 15.6799,4.08994 2.27343,0 3.41013,-6.1349 3.41013,-18.40747 z m 77.0779,-47.52105 c 0,-9.15613 -3.41009,-17.33601 -10.23028,-24.54234 -6.82562,-7.2009 -14.67102,-10.80951 -23.52802,-10.80951 -9.55043,0 -18.47813,4.37003 -26.77494,13.12369 -8.30224,8.75368 -12.44928,17.90435 -12.44928,27.4548 0,7.96232 3.8615,11.93533 11.59539,11.93533 h 39.2188 c 14.77436,-0.22299 22.16833,-5.94455 22.16833,-17.16197 z"
       id="path3479" />
  </g>
</svg>
