<?xml version="1.0" encoding="UTF-8" standalone="no"?>
<!-- Created with Inkscape (http://www.inkscape.org/) -->

<svg
   width="250"
   height="250"
   viewBox="0 0 234.375 234.375"
   id="svg3845"
   version="1.1"
   inkscape:version="1.3.2 (091e20e, 2023-11-25)"
   sodipodi:docname="g.svg"
   xmlns:inkscape="http://www.inkscape.org/namespaces/inkscape"
   xmlns:sodipodi="http://sodipodi.sourceforge.net/DTD/sodipodi-0.dtd"
   xmlns="http://www.w3.org/2000/svg"
   xmlns:svg="http://www.w3.org/2000/svg"
   xmlns:rdf="http://www.w3.org/1999/02/22-rdf-syntax-ns#"
   xmlns:cc="http://creativecommons.org/ns#"
   xmlns:dc="http://purl.org/dc/elements/1.1/">
  <defs
     id="defs3847">
    <pattern
       y="0"
       x="0"
       height="6"
       width="6"
       patternUnits="userSpaceOnUse"
       id="EMFhbasepattern" />
    <pattern
       y="0"
       x="0"
       height="6"
       width="6"
       patternUnits="userSpaceOnUse"
       id="EMFhbasepattern-0" />
    <pattern
       y="0"
       x="0"
       height="6"
       width="6"
       patternUnits="userSpaceOnUse"
       id="EMFhbasepattern-2" />
    <pattern
       y="0"
       x="0"
       height="6"
       width="6"
       patternUnits="userSpaceOnUse"
       id="EMFhbasepattern-7" />
    <pattern
       y="0"
       x="0"
       height="6"
       width="6"
       patternUnits="userSpaceOnUse"
       id="EMFhbasepattern-4" />
  </defs>
  <sodipodi:namedview
     id="base"
     pagecolor="#ffffff"
     bordercolor="#666666"
     borderopacity="1.0"
     inkscape:pageopacity="0.0"
     inkscape:pageshadow="2"
     inkscape:zoom="2.8"
     inkscape:cx="146.60714"
     inkscape:cy="131.96429"
     inkscape:document-units="px"
     inkscape:current-layer="layer1"
     showgrid="false"
     inkscape:window-width="1936"
     inkscape:window-height="1212"
     inkscape:window-x="170"
     inkscape:window-y="25"
     inkscape:window-maximized="0"
     units="px"
     fit-margin-top="0"
     fit-margin-left="0"
     fit-margin-right="0"
     fit-margin-bottom="0"
     inkscape:showpageshadow="2"
     inkscape:pagecheckerboard="0"
     inkscape:deskcolor="#d1d1d1"
     showguides="true">
    <sodipodi:guide
       position="146.98661,225"
       orientation="0,1"
       id="guide1"
       inkscape:locked="false"
       inkscape:label=""
       inkscape:color="rgb(0,134,229)" />
    <sodipodi:guide
       position="177.79018,9.375"
       orientation="0,1"
       id="guide2"
       inkscape:locked="false"
       inkscape:label=""
       inkscape:color="rgb(0,134,229)" />
    <sodipodi:guide
       position="9.375,232.70089"
       orientation="-1,0"
       id="guide3"
       inkscape:locked="false"
       inkscape:label=""
       inkscape:color="rgb(0,134,229)" />
    <sodipodi:guide
       position="225,224.33036"
       orientation="-1,0"
       id="guide4"
       inkscape:locked="false"
       inkscape:label=""
       inkscape:color="rgb(0,134,229)" />
  </sodipodi:namedview>
  <metadata
     id="metadata3850">
    <rdf:RDF>
      <cc:Work
         rdf:about="">
        <dc:format>image/svg+xml</dc:format>
        <dc:type
           rdf:resource="http://purl.org/dc/dcmitype/StillImage" />
      </cc:Work>
    </rdf:RDF>
  </metadata>
  <g
     inkscape:label="Layer 1"
     inkscape:groupmode="layer"
     id="layer1"
     transform="translate(-671.66181,-519.84953)">
    <circle
       style="fill:#93cba3;fill-opacity:1;fill-rule:nonzero;stroke-width:0.928172"
       id="path1"
       cx="788.8493"
       cy="637.03705"
       r="117.1875"
       transform="translate(3.7500002e-6)" />
    <path
       inkscape:connector-curvature="0"
       id="path3423"
       d="m 894.65101,650.30743 c 0,3.99943 -1.45431,7.63524 -4.72655,10.9075 -3.09044,3.09042 -6.72633,4.72655 -10.72569,4.72655 -6.36276,0 -11.08932,-3.09043 -14.17975,-9.08956 l -14.17958,-0.54537 c -3.09043,0 -9.08956,1.27257 -17.99738,3.99945 -9.45294,2.54505 -14.90669,4.72655 -16.36099,6.18086 -2.1815,2.54514 -3.99945,8.18062 -5.45376,17.08819 -1.09075,7.27169 -1.63612,12.54362 -1.63612,15.9977 0,5.45374 0.72745,9.45319 2.54505,11.99799 1.63613,2.54505 5.27202,4.54482 10.54395,6.36268 5.27202,1.63613 8.54401,2.72688 9.8165,2.9087 0.90902,0 2.1815,-0.18208 3.99944,-0.3633 h 3.6358 c 2.54515,0 5.27203,0.3633 8.18063,1.27257 3.99945,1.09074 5.63558,2.72688 5.0902,4.72655 -2.9087,-0.36329 -7.81707,0.18208 -14.90695,1.81795 l 8.54427,4.363 c 0,2.36332 -3.45407,3.6358 -10.36213,3.6358 -1.81795,0 -4.18126,-0.54537 -7.27144,-1.27248 -3.27225,-0.90901 -5.27201,-1.27257 -6.36276,-1.27257 h -3.81763 c -0.18207,1.99968 -0.90893,5.0902 -1.81786,9.0893 -3.45407,-0.18208 -7.45351,-2.18124 -12.18007,-5.99887 -4.54482,-3.81762 -7.45318,-5.81731 -8.72574,-5.81731 -1.27258,0 -2.9087,1.99969 -5.0902,5.81731 -2.36324,3.81763 -3.45399,6.36251 -3.45399,7.81682 -2.54514,-1.45431 -4.72664,-3.99919 -6.54449,-7.81682 -0.90902,-2.72687 -1.81796,-5.27193 -2.72688,-7.81699 -1.99976,0.18208 -5.8174,4.36301 -11.27114,12.72537 h -1.45431 c -0.54538,-0.72745 -1.9995,-4.90838 -4.54456,-12.72537 -6.36268,-1.99976 -12.18008,-3.09051 -17.63383,-3.09051 -2.54505,0 -6.72623,0.54537 -12.17973,1.81795 l -8.36244,-0.54538 c 1.09075,-1.27257 4.72655,-3.6358 10.54369,-7.08988 6.90805,-3.99944 12.17998,-5.99912 15.81587,-5.99912 0.54538,0 1.27249,0.18208 2.36324,0.3633 1.09075,0.18207 1.81794,0.18207 2.36332,0.18207 1.45431,0 3.81763,-0.72745 6.90805,-2.18149 3.09052,-1.45431 4.90822,-2.9087 5.45359,-4.18102 0.54537,-1.09075 0.72744,-4.36299 0.72744,-9.27137 0,-11.63461 -3.09017,-20.17889 -9.08929,-25.8142 -5.27202,-5.09011 -13.99801,-8.726 -25.99601,-10.9075 -3.27225,11.45288 -12.36181,17.27001 -27.26867,17.27001 -4.90829,0 -9.63484,-2.90843 -14.54323,-8.72574 -4.90837,-5.8174 -7.27161,-11.27114 -7.27161,-15.9977 0,-7.63525 3.09043,-13.6342 9.45311,-18.54258 -5.0901,-5.27193 -7.63524,-10.54386 -7.63524,-15.99761 0,-5.0902 1.63612,-9.63476 4.72655,-13.45238 3.09043,-3.81764 7.08987,-5.99914 12.17999,-6.54451 -0.3633,-6.5445 1.81795,-10.9075 6.36259,-13.45256 -2.18141,-2.1815 -3.27216,-5.99912 -3.27216,-11.63443 0,-6.72632 2.1815,-12.36181 6.72624,-16.72481 4.36299,-4.54482 9.81675,-6.72624 16.54307,-6.72624 7.27135,0 13.27047,2.54497 17.8153,7.63517 5.99913,-19.99689 18.54275,-29.99538 37.99427,-29.99538 9.99848,0 18.90604,3.99937 26.54129,12.1799 2.9087,2.9087 4.18118,4.54483 4.18118,4.72664 -2.36323,0 -1.09074,-0.36329 3.63589,-1.27256 4.90839,-0.90894 8.54418,-1.45431 10.72569,-1.45431 7.81681,0 14.72486,2.90861 20.90581,8.90774 5.27193,5.09002 8.90782,11.81635 10.9075,19.81515 1.27258,0.3633 3.63564,0.90902 6.54425,1.81794 4.54482,2.36333 6.72632,6.18069 6.72632,11.63444 0,0.90893 -0.90892,2.9087 -2.36332,5.63557 12.90726,7.27162 19.26995,17.45201 19.26995,30.35893 0,3.63581 -1.45431,8.72601 -4.18118,15.08869 5.27193,3.09051 7.81699,7.45326 7.81699,13.45238 z m -124.70839,13.27081 v -3.99944 c 0,-4.54482 -2.36323,-8.90783 -6.72606,-12.72545 -4.54474,-3.81737 -9.27138,-5.63531 -13.81612,-5.63531 -5.63557,0 -10.9075,1.27257 -15.81587,3.81746 10.72567,-0.54538 22.90575,5.63547 36.35805,18.54274 z m -5.45349,-37.63071 c -3.09044,-3.45398 -5.63558,-6.90805 -7.81708,-10.54386 -8.54417,2.1815 -12.72535,4.72656 -12.72535,7.63526 2.36323,-0.18208 5.8173,0.18208 10.54386,1.27248 4.72664,1.09075 7.99888,1.63612 9.99857,1.63612 z m 18.54249,-9.27137 v -13.4523 c -4.90837,-0.72746 -7.81699,-1.09075 -8.90774,-1.09075 v 4.54482 z m 39.26675,-8.54392 c -2.36323,-1.09075 -6.90805,-3.09043 -13.63437,-5.99913 v 25.99593 c 9.45319,-5.45376 13.99801,-12.17999 13.63437,-19.9968 z m 16.72464,35.81268 -6.72632,-8.18063 c -3.9991,2.72687 -8.18037,5.63557 -12.17982,8.54401 -4.18118,2.90869 -7.81698,6.18094 -10.72568,9.81675 8.90782,-4.72656 18.9064,-8.18063 29.63182,-10.18013 z"
       style="fill:#0d0f0f;fill-opacity:1;fill-rule:nonzero;stroke:none;stroke-width:8.58858" />
  </g>
</svg>
