<?xml version="1.0" encoding="UTF-8" standalone="no"?>
<!-- Created with Inkscape (http://www.inkscape.org/) -->

<svg
   width="250"
   height="250"
   viewBox="0 0 234.375 234.375"
   id="svg3845"
   version="1.1"
   inkscape:version="1.3.2 (091e20e, 2023-11-25)"
   sodipodi:docname="r.svg"
   xmlns:inkscape="http://www.inkscape.org/namespaces/inkscape"
   xmlns:sodipodi="http://sodipodi.sourceforge.net/DTD/sodipodi-0.dtd"
   xmlns="http://www.w3.org/2000/svg"
   xmlns:svg="http://www.w3.org/2000/svg"
   xmlns:rdf="http://www.w3.org/1999/02/22-rdf-syntax-ns#"
   xmlns:cc="http://creativecommons.org/ns#"
   xmlns:dc="http://purl.org/dc/elements/1.1/">
  <defs
     id="defs3847">
    <pattern
       y="0"
       x="0"
       height="6"
       width="6"
       patternUnits="userSpaceOnUse"
       id="EMFhbasepattern" />
    <pattern
       y="0"
       x="0"
       height="6"
       width="6"
       patternUnits="userSpaceOnUse"
       id="EMFhbasepattern-0" />
    <pattern
       y="0"
       x="0"
       height="6"
       width="6"
       patternUnits="userSpaceOnUse"
       id="EMFhbasepattern-2" />
    <pattern
       y="0"
       x="0"
       height="6"
       width="6"
       patternUnits="userSpaceOnUse"
       id="EMFhbasepattern-7" />
    <pattern
       y="0"
       x="0"
       height="6"
       width="6"
       patternUnits="userSpaceOnUse"
       id="EMFhbasepattern-4" />
  </defs>
  <sodipodi:namedview
     id="base"
     pagecolor="#ffffff"
     bordercolor="#666666"
     borderopacity="1.0"
     inkscape:pageopacity="0.0"
     inkscape:pageshadow="2"
     inkscape:zoom="2.8"
     inkscape:cx="146.60714"
     inkscape:cy="131.96429"
     inkscape:document-units="px"
     inkscape:current-layer="layer1"
     showgrid="false"
     inkscape:window-width="1936"
     inkscape:window-height="1212"
     inkscape:window-x="191"
     inkscape:window-y="87"
     inkscape:window-maximized="0"
     units="px"
     fit-margin-top="0"
     fit-margin-left="0"
     fit-margin-right="0"
     fit-margin-bottom="0"
     inkscape:showpageshadow="2"
     inkscape:pagecheckerboard="0"
     inkscape:deskcolor="#d1d1d1"
     showguides="true">
    <sodipodi:guide
       position="146.98661,225"
       orientation="0,1"
       id="guide1"
       inkscape:locked="false"
       inkscape:label=""
       inkscape:color="rgb(0,134,229)" />
    <sodipodi:guide
       position="177.79018,9.375"
       orientation="0,1"
       id="guide2"
       inkscape:locked="false"
       inkscape:label=""
       inkscape:color="rgb(0,134,229)" />
    <sodipodi:guide
       position="9.375,232.70089"
       orientation="-1,0"
       id="guide3"
       inkscape:locked="false"
       inkscape:label=""
       inkscape:color="rgb(0,134,229)" />
    <sodipodi:guide
       position="225,224.33036"
       orientation="-1,0"
       id="guide4"
       inkscape:locked="false"
       inkscape:label=""
       inkscape:color="rgb(0,134,229)" />
  </sodipodi:namedview>
  <metadata
     id="metadata3850">
    <rdf:RDF>
      <cc:Work
         rdf:about="">
        <dc:format>image/svg+xml</dc:format>
        <dc:type
           rdf:resource="http://purl.org/dc/dcmitype/StillImage" />
      </cc:Work>
    </rdf:RDF>
  </metadata>
  <g
     inkscape:label="Layer 1"
     inkscape:groupmode="layer"
     id="layer1"
     transform="translate(-671.66181,-519.84953)">
    <circle
       style="fill:#eea489;fill-opacity:1;fill-rule:nonzero;stroke-width:0.928172"
       id="path1"
       cx="788.8493"
       cy="637.03705"
       r="117.1875"
       transform="translate(3.7500002e-6)" />
    <path
       inkscape:connector-curvature="0"
       id="path3410"
       d="m 884.0162,676.11671 c -8.65689,20.60379 -25.7981,30.81931 -51.4231,30.81931 -4.67488,0 -9.86918,0.51943 -15.23642,1.73138 -8.31088,1.73122 -12.46632,4.32837 -12.46632,7.44495 0,0.86569 0.69285,2.07772 2.07772,3.28975 1.38513,1.38513 2.59715,1.90455 3.63601,1.90455 -5.02113,0 -1.55829,0.17342 9.86893,0.51944 11.60064,0.17342 18.87267,0.346 21.81607,0.346 -17.14119,10.04236 -45.53644,14.71722 -85.53233,13.85154 -13.15877,-0.17342 -24.41298,-6.06007 -33.76273,-17.31437 -9.17641,-10.73462 -13.85128,-22.85469 -13.85128,-36.18671 0,-14.02445 4.67487,-26.14444 14.19754,-36.01337 9.52291,-9.86918 21.29656,-14.8904 35.49411,-14.8904 3.11657,0 7.27202,0.69285 12.46632,2.07772 5.19431,1.38521 8.65715,2.07773 10.38861,2.07773 7.27177,0 16.27527,-2.94341 27.01013,-9.00341 10.90779,-5.8869 15.92893,-8.8303 15.40949,-8.8303 -2.07772,20.60403 -8.83006,34.28215 -20.60379,41.381 -8.48406,4.84804 -12.6395,9.696 -12.6395,14.37088 0,2.94348 1.73145,5.36723 5.1943,7.09869 2.77032,1.38512 5.8869,2.07772 9.17666,2.07772 5.02113,0 10.04227,-3.11658 15.06324,-9.3495 4.84796,-6.40634 6.92568,-12.12006 6.40624,-17.1412 -0.51943,-5.88691 -0.17341,-12.98552 1.21203,-21.1233 0.34602,-2.42399 1.73147,-5.19432 4.15545,-8.65715 2.42398,-3.46285 4.67487,-5.54057 6.75259,-6.40634 0,1.73146 -0.69285,4.67488 -2.07772,8.83032 -1.21203,4.15544 -1.90455,7.27201 -1.90455,9.17666 0,4.32853 1.21195,7.61828 3.63601,9.86892 3.46285,-1.21178 6.57943,-5.71349 9.34975,-13.15868 2.42373,-5.71374 3.80893,-11.08121 4.1552,-16.4486 -8.31064,-0.34601 -16.1021,-4.15528 -23.72046,-11.08096 -7.44511,-7.09894 -11.25405,-14.71723 -11.25405,-23.02787 0,-1.38511 0.17341,-2.77031 0.51943,-4.15544 1.21177,1.90456 2.94316,4.50171 5.36723,8.31064 3.28966,4.84805 5.88682,7.27203 7.61827,7.27203 2.42399,0 3.46285,-2.42398 3.46285,-7.27203 0,-6.23291 -1.5583,-11.94665 -4.84796,-16.96779 -3.80918,-6.23316 -8.65723,-9.17665 -14.54389,-9.17665 -2.77024,0 -6.75251,1.38521 -12.29315,4.32861 -5.54057,2.94342 -10.38861,4.50171 -14.89031,4.50171 -1.38496,0 -7.61812,-1.73138 -18.35298,-5.36739 19.04557,-3.11659 28.56841,-5.88683 28.56841,-8.48398 0,-6.57941 -12.9855,-11.08111 -39.1302,-13.50511 -2.5969,-0.17342 -7.27177,-0.51942 -14.02437,-1.21194 0.69285,-0.86578 6.23316,-2.07773 16.62153,-3.28976 8.83031,-0.86568 15.06348,-1.38512 18.5264,-1.38512 46.74824,0 76.35552,22.6816 88.82185,67.8718 2.07772,-1.73146 3.28975,-4.67487 3.28975,-9.00349 0,-5.19429 -1.55829,-12.11982 -4.84804,-20.25754 -1.03887,-3.11658 -2.94341,-7.79145 -5.54057,-14.19779 16.10234,20.43096 24.06673,39.82281 24.06673,58.17579 0,9.69601 -2.2509,18.35316 -6.75235,26.31778 -2.9435,5.19406 -8.31088,12.11982 -16.44869,20.25753 -7.96454,8.31088 -13.50494,14.71699 -16.44835,19.21869 10.73462,-2.94342 17.83356,-5.19432 21.12323,-6.7526 7.44519,-3.28951 14.19754,-8.31064 20.4307,-14.89007 0,2.42398 -1.21202,6.23317 -3.28975,11.42748 z M 755.89123,560.63074 c 0,3.46284 -1.90463,5.71373 -5.88683,6.7526 l -7.61835,1.21194 c -2.77026,1.3852 -6.7526,6.7526 -12.12,16.10235 -0.51943,-2.94342 -1.38512,-7.09886 -2.59706,-12.29317 -1.73155,0.17342 -4.67496,1.73147 -8.8304,4.67488 -1.73138,1.38513 -4.6748,3.46284 -8.4839,6.05999 1.21195,-6.92569 5.02106,-14.19771 11.77365,-21.29664 6.92568,-8.13763 13.85136,-12.1199 20.43079,-12.1199 8.83032,0 13.33202,3.63601 13.3321,10.90795 z m 51.07678,27.01013 c 0,3.28967 -1.73139,6.05999 -5.3674,8.31089 -3.63594,2.2508 -7.27203,3.46283 -10.73486,3.46283 -4.67464,0 -9.00326,-2.59715 -12.63927,-7.96461 -4.5017,-6.40626 -9.17657,-10.73464 -13.85144,-12.63918 1.03886,-1.03885 2.25089,-1.55829 3.46284,-1.55829 1.90464,0 4.84805,1.38512 9.00349,4.15545 4.3286,2.77023 6.92576,4.15519 8.13771,4.15519 1.03887,0 2.59699,-1.38496 4.8478,-4.15519 2.2509,-2.77033 4.67488,-4.15545 7.4452,-4.15545 6.57943,0 9.696,3.46283 9.69593,10.38836 z"
       style="fill:#0d0f0f;fill-opacity:1;fill-rule:nonzero;stroke:none;stroke-width:8.18001" />
  </g>
</svg>
