<?xml version="1.0" encoding="UTF-8" standalone="no"?>
<!-- Created with Inkscape (http://www.inkscape.org/) -->

<svg
   width="250"
   height="250"
   viewBox="0 0 234.375 234.375"
   id="svg3845"
   version="1.1"
   inkscape:version="1.3.2 (091e20e, 2023-11-25)"
   sodipodi:docname="w.svg"
   xmlns:inkscape="http://www.inkscape.org/namespaces/inkscape"
   xmlns:sodipodi="http://sodipodi.sourceforge.net/DTD/sodipodi-0.dtd"
   xmlns="http://www.w3.org/2000/svg"
   xmlns:svg="http://www.w3.org/2000/svg"
   xmlns:rdf="http://www.w3.org/1999/02/22-rdf-syntax-ns#"
   xmlns:cc="http://creativecommons.org/ns#"
   xmlns:dc="http://purl.org/dc/elements/1.1/">
  <defs
     id="defs3847">
    <pattern
       y="0"
       x="0"
       height="6"
       width="6"
       patternUnits="userSpaceOnUse"
       id="EMFhbasepattern" />
    <pattern
       y="0"
       x="0"
       height="6"
       width="6"
       patternUnits="userSpaceOnUse"
       id="EMFhbasepattern-0" />
    <pattern
       y="0"
       x="0"
       height="6"
       width="6"
       patternUnits="userSpaceOnUse"
       id="EMFhbasepattern-2" />
    <pattern
       y="0"
       x="0"
       height="6"
       width="6"
       patternUnits="userSpaceOnUse"
       id="EMFhbasepattern-7" />
    <pattern
       y="0"
       x="0"
       height="6"
       width="6"
       patternUnits="userSpaceOnUse"
       id="EMFhbasepattern-4" />
  </defs>
  <sodipodi:namedview
     id="base"
     pagecolor="#ffffff"
     bordercolor="#666666"
     borderopacity="1.0"
     inkscape:pageopacity="0.0"
     inkscape:pageshadow="2"
     inkscape:zoom="2.8"
     inkscape:cx="146.60714"
     inkscape:cy="131.96429"
     inkscape:document-units="px"
     inkscape:current-layer="layer1"
     showgrid="false"
     inkscape:window-width="1936"
     inkscape:window-height="1212"
     inkscape:window-x="269"
     inkscape:window-y="42"
     inkscape:window-maximized="0"
     units="px"
     fit-margin-top="0"
     fit-margin-left="0"
     fit-margin-right="0"
     fit-margin-bottom="0"
     inkscape:showpageshadow="2"
     inkscape:pagecheckerboard="0"
     inkscape:deskcolor="#d1d1d1"
     showguides="true">
    <sodipodi:guide
       position="146.98661,225"
       orientation="0,1"
       id="guide1"
       inkscape:locked="false"
       inkscape:label=""
       inkscape:color="rgb(0,134,229)" />
    <sodipodi:guide
       position="177.79018,9.375"
       orientation="0,1"
       id="guide2"
       inkscape:locked="false"
       inkscape:label=""
       inkscape:color="rgb(0,134,229)" />
    <sodipodi:guide
       position="9.375,232.70089"
       orientation="-1,0"
       id="guide3"
       inkscape:locked="false"
       inkscape:label=""
       inkscape:color="rgb(0,134,229)" />
    <sodipodi:guide
       position="225,224.33036"
       orientation="-1,0"
       id="guide4"
       inkscape:locked="false"
       inkscape:label=""
       inkscape:color="rgb(0,134,229)" />
  </sodipodi:namedview>
  <metadata
     id="metadata3850">
    <rdf:RDF>
      <cc:Work
         rdf:about="">
        <dc:format>image/svg+xml</dc:format>
        <dc:type
           rdf:resource="http://purl.org/dc/dcmitype/StillImage" />
      </cc:Work>
    </rdf:RDF>
  </metadata>
  <g
     inkscape:label="Layer 1"
     inkscape:groupmode="layer"
     id="layer1"
     transform="translate(-671.66181,-519.84953)">
    <circle
       style="fill:#fffcd2;fill-opacity:1;fill-rule:nonzero;stroke-width:0.928172;stroke:none"
       id="path1"
       cx="788.8493"
       cy="637.03705"
       r="117.1875"
       transform="translate(3.7500002e-6)" />
    <path
       inkscape:connector-curvature="0"
       id="path3378"
       d="m 895.88105,652.94029 c -14.80956,-8.4144 -24.23354,-12.62168 -28.2725,-12.62168 -3.02923,0 -5.38534,2.35603 -7.23651,7.06811 -1.68293,4.54383 -5.0487,6.90002 -10.09741,6.90002 -2.01924,0 -6.39476,-0.8415 -12.78984,-2.35619 -3.53409,5.55357 -5.38525,9.08767 -5.38525,10.60228 0,2.01956 1.51461,4.54367 4.71215,7.23626 3.02922,2.86091 5.72181,4.37552 7.74129,4.37552 1.34637,0 3.19754,-0.33631 5.55334,-0.84142 2.35611,-0.67343 3.87072,-0.84143 4.54383,-0.84143 2.35612,0 3.53409,4.20728 3.53409,12.62184 0,8.24609 -1.85116,20.69945 -5.72181,37.3601 -4.88023,-19.18508 -10.09717,-28.7773 -15.48251,-28.7773 -0.84142,0 -2.35603,0.50487 -4.71207,1.68285 -2.35611,1.17782 -4.03896,1.68269 -5.21702,1.68269 -5.55357,0 -10.4338,-5.04847 -14.80932,-14.97756 -8.5828,1.3463 -12.95832,5.72181 -12.95832,13.29487 0,3.70217 1.68285,6.73139 5.21695,9.08751 3.53409,2.18772 5.21702,3.87065 5.21702,4.71207 0,5.21702 -7.40474,12.95832 -22.38238,23.56044 -7.90961,5.72181 -13.29487,9.59254 -16.32409,11.94857 2.69259,-3.53409 5.21694,-7.90961 7.90961,-13.29495 3.02922,-6.22644 4.54383,-11.10691 4.54383,-14.47269 0,-2.01948 -2.1878,-4.54383 -6.56331,-7.90961 -4.37552,-3.53409 -6.395,-7.06818 -6.395,-10.77067 0,-3.19722 1.00974,-7.23619 3.36577,-11.94834 -2.52435,-2.8609 -5.38526,-4.20728 -8.75111,-4.20728 -7.57282,0 -11.44347,2.35612 -11.44347,7.2365 v 7.74114 c 0.16856,6.22676 -4.54383,9.25598 -14.13637,9.25598 -7.40482,0 -19.68971,-1.68292 -37.02354,-5.0487 19.52155,-4.88039 29.45048,-10.60204 29.45048,-16.99712 0,0.8415 -0.33631,-1.51461 -1.17806,-6.73155 -0.67342,-5.89021 3.36578,-11.10715 12.45345,-15.81907 -1.68285,-8.75111 -6.22668,-13.12663 -13.6315,-13.12663 -1.00974,0 -3.19722,2.01948 -6.22645,6.05845 -3.02922,3.87065 -5.72189,5.89013 -8.41456,5.89013 -4.54383,0 -10.43396,-4.88039 -17.50207,-14.80948 -3.53401,-4.88047 -8.75095,-12.11674 -15.65082,-21.70927 4.37551,2.18771 8.75103,4.54383 12.95823,6.73155 5.72182,2.69275 10.26557,4.03904 13.63135,4.03904 2.69267,0 5.21702,-2.35603 7.74137,-6.89987 2.69267,-4.71215 5.89013,-7.06826 10.09741,-7.06826 0.67342,0 4.37528,1.17797 11.27523,3.53417 3.70233,-5.55358 5.38526,-9.59254 5.38526,-12.28529 0,-2.18772 -1.3463,-4.88039 -4.03897,-7.74105 -2.69267,-2.86099 -5.21702,-4.3756 -7.57305,-4.3756 -0.84143,0 -2.35604,0.33631 -4.37528,0.84142 -1.85125,0.50487 -3.36586,0.84151 -4.3756,0.84151 -3.36578,0 -5.04871,-4.20728 -5.04871,-12.79008 0,-2.1878 2.1878,-15.14588 6.56332,-38.70647 -0.16855,2.8609 1.00974,8.07785 3.70217,15.81922 3.19754,9.42406 6.89987,14.13613 11.27547,14.13613 0.67342,0 2.18772,-0.50487 4.54383,-1.68284 2.18772,-1.17806 4.03897,-1.68293 5.38526,-1.68293 4.37552,0 7.90961,2.52435 10.77036,7.40474 l 4.20728,7.57306 c 3.87065,0 7.23642,-1.3463 9.92909,-4.20721 2.52435,-2.86098 3.87065,-6.22676 3.87065,-10.26572 0,-4.03873 -1.68285,-7.23627 -5.21694,-9.42406 -3.5341,-2.18772 -5.21702,-3.87065 -5.21702,-4.88039 0,-4.03897 6.22676,-10.7706 18.6802,-20.19466 10.09717,-7.57306 16.49217,-11.94858 19.5214,-13.29487 -8.07793,10.93875 -12.11689,19.01668 -12.11689,24.06531 0,2.69258 1.51461,5.55357 4.71215,8.41448 4.03896,3.70241 6.22676,6.22676 6.89987,7.74137 1.85124,4.37552 1.68292,10.26549 -0.67343,17.83854 5.21702,3.5341 9.08767,5.38526 11.61202,5.38526 5.55342,0 8.24601,-2.8609 8.24601,-8.5828 0,-0.50487 -0.16856,-2.35603 -0.67343,-5.38525 -0.50487,-3.02923 -0.67342,-4.71192 -0.50487,-5.04855 0.8415,-2.69259 6.05845,-3.87065 15.65098,-3.87065 6.05845,0 18.51174,1.68293 37.69681,5.04847 -4.20728,1.17806 -10.43396,2.86099 -18.6802,5.0487 -7.57306,2.35612 -11.44355,4.88047 -11.44355,7.74138 0,1.17806 0.50487,3.53409 1.51461,6.73163 0.84127,3.19746 1.34614,5.55358 1.34614,7.06819 0,2.69259 -1.68269,5.04846 -5.04847,7.4045 l -9.59254,6.73163 c 2.18772,4.2072 3.70233,6.56332 4.54384,7.40474 1.85116,2.1878 4.37552,3.36578 7.57305,3.36578 2.3558,0 4.37528,-2.01948 6.22653,-5.89013 1.85116,-4.03896 4.88039,-6.05845 9.08767,-6.05845 5.0487,0 10.77051,4.71215 17.33359,14.13638 3.53409,5.38526 9.08767,13.46302 16.66073,24.23354 z m -62.94009,-16.49233 c 0,-12.11665 -4.37552,-22.55077 -13.29487,-31.46989 -8.75088,-8.75111 -19.35316,-13.29494 -31.30181,-13.29494 -12.28489,0 -22.88717,4.37559 -31.80636,13.12663 -8.91935,8.91919 -13.46319,19.35315 -13.6315,31.63812 -0.16856,12.11689 4.37551,22.55086 13.46318,31.30173 9.25575,8.75112 19.85803,13.12663 31.97468,13.12663 12.79008,0 23.39236,-4.20728 31.97492,-12.62176 8.5828,-8.41424 12.79008,-19.01652 12.62176,-31.80652 z m -4.2072,0 c 0,11.44363 -3.87073,21.03616 -11.61186,28.6093 -7.7413,7.57274 -17.33384,11.27523 -28.77762,11.27523 -11.27515,0 -20.69945,-3.87073 -28.60906,-11.61178 -7.90945,-7.74146 -11.94842,-17.16568 -11.94842,-28.27275 0,-10.93867 4.03897,-20.36297 11.94842,-28.10435 8.07793,-7.90937 17.50215,-11.78002 28.60906,-11.78002 10.93891,0 20.36314,3.87065 28.44106,11.78002 7.90945,8.07793 11.94842,17.33391 11.94842,28.10435 z"
       style="fill:#0d0f0f;fill-opacity:1;fill-rule:nonzero;stroke:none;stroke-width:7.95072" />
  </g>
</svg>
